<svg
  xmlns="http://www.w3.org/2000/svg"
  viewBox="0 0 19.5 19.5"
  height="24"
  width="24"
>
  <path
    class="icon-part"
    d="M18.75,9.5H13.6c0,.08,0,.16,0,.25a4,4,0,0,1-8,0c0-.09,0-.17,0-.25H0v4.19A5.82,5.82,0,0,0,5.81,19.5h7.88a5.82,5.82,0,0,0,5.81-5.81V9.5Z"
  ></path>
  <path
    class="icon-part"
    d="M13.69,0H5.81A5.82,5.82,0,0,0,0,5.81V8H6a4,4,0,0,1,7.16,0H19.5V5.81A5.82,5.82,0,0,0,13.69,0Zm1.06,5.75a1,1,0,1,1,1-1A1,1,0,0,1,14.75,5.75Z"
  ></path>
  <path class="icon-part" d="M5.65,9.5h.1"></path>
</svg>