<svg
  xmlns="http://www.w3.org/2000/svg"
  viewBox="0 0 21.76 18"
  height="24"
  width="24"
>
  <path
    class="icon-part"
    d="M-1080.21,554.12a9,9,0,0,1-3.22.53h0a4.44,4.44,0,0,0-3.3-1.48,4.47,4.47,0,0,0-4.47,4.47,4.42,4.42,0,0,0,.19,1.22h0a14.05,14.05,0,0,1-9.47-4.93,5,5,0,0,0,1.78,6l-2.36.11s-.37,2.63,3.65,3.64a6,6,0,0,1-3.18,1,7,7,0,0,0,5,2.32,6.68,6.68,0,0,1-6.34,2.24c-.6-.09,8.6,5,15.19-.89,4-3.54,4.5-8.79,4.56-10.59A4.49,4.49,0,0,0-1080.21,554.12Z"
    transform="translate(1101.97 -553.17)"
  ></path>
</svg>